<svg width="58" height="58" viewBox="0 0 58 58" fill="none" xmlns="http://www.w3.org/2000/svg">
<path d="M56.2374 40.0263L33.8344 17.6256V7.6916C33.8344 6.12336 33.4865 4.54299 32.8002 3.06887L32.2903 2.10232C31.6886 0.804682 30.4296 0 29.0015 0C27.5733 0 26.3143 0.804682 25.7392 2.04671L25.1762 3.122C24.5165 4.54288 24.1685 6.12086 24.1685 7.69149V17.6255L1.77276 40.0215C0.632225 41.162 0.00390625 42.6772 0.00390625 44.2914V47.1235C0.00390625 47.5657 0.245515 47.9717 0.632225 48.1819C1.01882 48.3946 1.49252 48.3801 1.86462 48.1384L24.6373 33.5454C24.8621 37.2015 25.1665 40.2535 25.5386 43.9677L25.9229 47.7736L17.4628 53.3629C17.1221 53.59 16.9191 53.967 16.9191 54.3729V56.7893C16.9191 57.1542 17.0859 57.5022 17.371 57.7318C17.6586 57.9637 18.033 58.0507 18.3883 57.971L29.0014 55.6101L39.6145 57.971C39.7015 57.9904 39.7885 58 39.8754 58C40.1485 58 40.4143 57.9081 40.6318 57.7341C40.9169 57.5022 41.0836 57.1542 41.0836 56.7893V54.3729C41.0836 53.967 40.8806 53.5876 40.5399 53.3653L32.0799 47.7832L32.4641 43.9652C32.8362 40.2559 33.1406 37.2064 33.3654 33.5502L56.1381 48.1383C56.5127 48.3799 56.9839 48.3921 57.3681 48.1818C57.7572 47.9716 57.9988 47.5656 57.9988 47.1234V44.2913C57.999 42.6772 57.3732 41.162 56.2374 40.0263Z" fill="#5B5B5B"/>
<path d="M56.2374 40.0263L33.8344 17.6256V7.6916C33.8344 6.12336 33.4865 4.54299 32.8002 3.06887L32.2903 2.10232C31.6886 0.804682 30.4296 0 29.0015 0C27.5733 0 26.3143 0.804682 25.7392 2.04671L25.1762 3.122C24.5165 4.54288 24.1685 6.12086 24.1685 7.69149V17.6255L1.77276 40.0215C0.632225 41.162 0.00390625 42.6772 0.00390625 44.2914V47.1235C0.00390625 47.5657 0.245515 47.9717 0.632225 48.1819C1.01882 48.3946 1.49252 48.3801 1.86462 48.1384L24.6373 33.5454C24.8621 37.2015 25.1665 40.2535 25.5386 43.9677L25.9229 47.7736L17.4628 53.3629C17.1221 53.59 16.9191 53.967 16.9191 54.3729V56.7893C16.9191 57.1542 17.0859 57.5022 17.371 57.7318C17.6586 57.9637 18.033 58.0507 18.3883 57.971L29.0014 55.6101L39.6145 57.971C39.7015 57.9904 39.7885 58 39.8754 58C40.1485 58 40.4143 57.9081 40.6318 57.7341C40.9169 57.5022 41.0836 57.1542 41.0836 56.7893V54.3729C41.0836 53.967 40.8806 53.5876 40.5399 53.3653L32.0799 47.7832L32.4641 43.9652C32.8362 40.2559 33.1406 37.2064 33.3654 33.5502L56.1381 48.1383C56.5127 48.3799 56.9839 48.3921 57.3681 48.1818C57.7572 47.9716 57.9988 47.5656 57.9988 47.1234V44.2913C57.999 42.6772 57.3732 41.162 56.2374 40.0263Z" stroke="black"/>
</svg>
