<svg width="50" height="50" viewBox="0 0 50 50" fill="none" xmlns="http://www.w3.org/2000/svg">
<path d="M25.265 24.4332L24.8457 24.1038L24.4227 24.4284L22.2123 26.1248C22.2117 26.1252 22.2111 26.1257 22.2105 26.1261C22.0952 26.2129 22.0243 26.2248 21.9886 26.2255C21.952 26.2263 21.8772 26.2169 21.752 26.1317L21.3656 26.6993L21.752 26.1316C21.6267 26.0464 21.6029 25.988 21.5977 25.9725C21.5931 25.9586 21.5776 25.9034 21.625 25.7705L21.6294 25.7582L21.6333 25.7458L22.5088 22.9649L22.6508 22.5138L22.2801 22.2203L19.8119 20.2664C19.7096 20.1827 19.6824 20.122 19.6732 20.0903C19.6639 20.0583 19.6542 19.9908 19.6974 19.8618C19.7377 19.7413 19.7822 19.702 19.8048 19.6863C19.8305 19.6686 19.8968 19.6345 20.0514 19.6345H22.9868H23.4877L23.6406 19.1575L24.5123 16.4402C24.5631 16.302 24.616 16.2503 24.643 16.2305C24.6672 16.2126 24.7189 16.1841 24.8407 16.1841C24.9626 16.1841 25.0143 16.2126 25.0385 16.2305C25.0655 16.2503 25.1184 16.302 25.1692 16.4401L26.0408 19.1575L26.1938 19.6345H26.6947L29.6301 19.6345L29.632 19.6345C29.7607 19.6341 29.8095 19.6635 29.826 19.6755C29.8433 19.6881 29.8891 19.7285 29.932 19.858C29.9748 19.9871 29.9654 20.0555 29.9557 20.0891C29.9461 20.1222 29.9183 20.1835 29.8169 20.2673L27.3499 22.2203L26.9792 22.5138L27.1212 22.9649L27.9934 25.7355C28.0291 25.865 28.0155 25.9305 28.0046 25.9612C27.9933 25.9929 27.9606 26.0557 27.8434 26.1386C27.73 26.2187 27.6651 26.2251 27.6365 26.2245C27.6068 26.2239 27.5379 26.2136 27.421 26.1272L25.265 24.4332ZM14.9945 46.2081L14.9945 46.208L14.9838 46.2117C14.5001 46.381 14.1103 46.3206 13.7334 46.0468C13.3401 45.7611 13.1669 45.4167 13.1678 44.9558V44.9544V31.8739V31.6093L12.9904 31.4132C11.7432 30.0347 10.7741 28.4589 10.0827 26.6812C9.39423 24.9107 9.04797 23.0214 9.04797 21.0077C9.04797 16.5855 10.5748 12.8646 13.6362 9.80318C16.6976 6.74176 20.4185 5.21496 24.8407 5.21496C29.263 5.21496 32.9839 6.74176 36.0453 9.80318C39.1067 12.8646 40.6335 16.5855 40.6335 21.0077C40.6335 23.0214 40.2873 24.9107 39.5987 26.6812C38.9074 28.4589 37.9383 30.0347 36.6911 31.4132L36.5137 31.6093V31.8739V44.9544C36.5137 45.4158 36.3397 45.7608 35.946 46.0468C35.5689 46.3208 35.1798 46.3808 34.6981 46.2119L34.6982 46.2118L34.687 46.2081L25.0568 43.0152L24.8407 42.9435L24.6247 43.0152L14.9945 46.2081ZM24.8407 34.0539C28.454 34.0539 31.5475 32.7814 34.081 30.248C36.6144 27.7145 37.887 24.621 37.887 21.0077C37.887 17.3945 36.6144 14.301 34.081 11.7675C31.5475 9.23404 28.454 7.96153 24.8407 7.96153C21.2275 7.96153 18.134 9.23404 15.6005 11.7675C13.067 14.301 11.7945 17.3945 11.7945 21.0077C11.7945 24.621 13.067 27.7145 15.6005 30.248C18.134 32.7814 21.2275 34.0539 24.8407 34.0539Z" fill="#E66E06" stroke="#E66E06" stroke-width="1.37328"/>
</svg>
