<svg width="50" height="64" viewBox="0 0 50 64" fill="none" xmlns="http://www.w3.org/2000/svg">
<path d="M25 0C11.5073 0 0.529297 10.978 0.529297 24.4707V47.0586C0.529297 50.1729 3.0625 52.7061 6.17627 52.7061C9.29053 52.7061 11.8237 50.1729 11.8237 47.0586V28.2354C11.8237 25.1216 9.29053 22.5884 6.17627 22.5884C5.54248 22.5884 4.94287 22.7168 4.37305 22.9102C5.17627 12.2212 14.1108 3.76465 25 3.76465C35.8833 3.76465 44.8154 12.2134 45.626 22.895C45.0596 22.7012 44.4565 22.5884 43.8237 22.5884C40.7095 22.5884 38.1763 25.1216 38.1763 28.2354V47.0586C38.1763 50.1729 40.7095 52.7061 43.8237 52.7061C44.4868 52.7061 45.1143 52.5703 45.7061 52.3594V54.5884C45.7061 55.627 44.8604 56.4707 43.8237 56.4707H30.3003C29.5205 54.2842 27.4507 52.7061 25 52.7061C21.8862 52.7061 19.353 55.2393 19.353 58.353C19.353 61.4668 21.8862 64 25 64C27.4507 64 29.5205 62.4214 30.3003 60.2354H43.8237C46.9375 60.2354 49.4707 57.7021 49.4707 54.5884C49.4707 43.2661 49.4707 35.8052 49.4707 24.4707C49.4707 10.978 38.4927 0 25 0V0Z" fill="#5B5B5B"/>
</svg>
