<svg width="50" height="50" viewBox="0 0 50 50" fill="none" xmlns="http://www.w3.org/2000/svg">
<path d="M24.7204 45.0402H24.7207C27.4807 45.0416 30.0655 44.5187 32.4819 43.4753C34.9119 42.4261 37.0187 41.0061 38.8088 39.2161C40.5975 37.426 42.0168 35.3191 43.066 32.8891C44.1094 30.4726 44.633 27.8877 44.633 25.1276V25.1273C44.6343 22.3672 44.1115 19.7825 43.0681 17.3661C42.0189 14.9361 40.5989 12.8292 38.8088 11.0391C37.0188 9.25044 34.9119 7.83115 32.4819 6.78193C30.0655 5.73856 27.4807 5.215 24.7207 5.21496L24.7204 45.0402ZM24.7204 45.0402C21.9602 45.0402 19.3754 44.5167 16.9588 43.4733M24.7204 45.0402L16.9588 43.4733M16.9588 43.4733C14.5289 42.424 12.422 41.0047 10.6319 39.2161M16.9588 43.4733L10.6319 39.2161M10.6319 39.2161C8.84189 37.426 7.42266 35.3192 6.37483 32.8894C5.33271 30.4728 4.80911 27.8878 4.80774 25.1276L10.6319 39.2161ZM10.6321 11.039C10.632 11.039 10.632 11.0391 10.6319 11.0391C8.84322 12.8292 7.42393 14.9361 6.37471 17.3661C5.33133 19.7825 4.80778 22.3673 4.80774 25.1273L10.6321 11.039ZM10.6321 11.039C12.4221 9.24902 14.5288 7.82985 16.9586 6.78206C19.3752 5.73994 21.9601 5.21633 24.7204 5.21496L10.6321 11.039ZM21.0843 41.8684L21.6006 41.9713L21.834 41.4994C23.3241 38.486 25.2741 36.5427 27.6571 35.573C30.1887 34.5428 32.293 34.0527 33.9895 34.0539H33.99C34.7397 34.0539 35.471 34.1191 36.1846 34.2489C36.9183 34.3823 37.6345 34.5488 38.3333 34.7485L38.8278 34.8898L39.1024 34.4549C39.9585 33.0995 40.6352 31.6385 41.1331 30.0736C41.636 28.4931 41.8864 26.8434 41.8864 25.1276C41.8864 20.3488 40.2203 16.2763 36.896 12.952C33.5716 9.62762 29.4991 7.96153 24.7204 7.96153C19.9416 7.96153 15.8691 9.62762 12.5448 12.952C9.2204 16.2763 7.55431 20.3488 7.55431 25.1276C7.55431 26.7316 7.759 28.2704 8.17094 29.7416C8.58388 31.2164 9.20571 32.586 10.0363 33.8478L10.375 34.3624L10.9232 34.0813C12.215 33.4188 13.5821 32.9048 15.0258 32.5395C16.4598 32.1768 17.974 31.994 19.5705 31.994C20.6296 31.994 21.6425 32.0854 22.6103 32.2666C23.0794 32.3544 23.5469 32.4553 24.0129 32.5692C23.6967 32.7801 23.3881 33.003 23.0869 33.2378C22.454 33.7313 21.8549 34.2522 21.2897 34.8004C20.9929 34.7615 20.7197 34.7406 20.4728 34.7406H19.5705C18.3887 34.7406 17.2392 34.866 16.1234 35.1179C15.0076 35.3699 13.9282 35.7478 12.8863 36.2508L12.0157 36.6711L12.6992 37.3547C13.8441 38.4996 15.1247 39.4579 16.5396 40.2284L16.8679 39.6254L16.5396 40.2284C17.9583 41.001 19.4741 41.5475 21.0843 41.8684ZM19.5705 27.5308C17.7613 27.5308 16.2366 26.8993 14.9578 25.6205C13.679 24.3417 13.0474 22.817 13.0474 21.0077C13.0474 19.1985 13.679 17.6738 14.9578 16.3949C16.2366 15.1161 17.7613 14.4846 19.5705 14.4846C21.3798 14.4846 22.9045 15.1161 24.1833 16.3949C25.4621 17.6738 26.0937 19.1985 26.0937 21.0077C26.0937 22.817 25.4621 24.3417 24.1833 25.6205C22.9045 26.8993 21.3798 27.5308 19.5705 27.5308ZM19.5717 24.7843C20.6098 24.784 21.5145 24.4122 22.2458 23.6809L17.3829 23.1974C17.9844 23.7989 18.7136 24.099 19.5705 24.0976V24.7843C19.5709 24.7843 19.5713 24.7843 19.5717 24.7843ZM22.2437 18.3325C21.5123 17.601 20.6077 17.2297 19.5701 17.2312L22.6604 21.0077H23.3471C23.3471 21.0074 23.3471 21.007 23.3471 21.0066C23.3468 19.9685 22.975 19.0638 22.2437 18.3325ZM33.99 29.5908C32.7253 29.5908 31.6826 29.1619 30.8192 28.2984C29.9558 27.435 29.5269 26.3923 29.5269 25.1276C29.5269 23.8628 29.9558 22.8202 30.8192 21.9568C31.6826 21.0933 32.7253 20.6644 33.99 20.6644C35.2548 20.6644 36.2975 21.0933 37.1609 21.9568C38.0243 22.8202 38.4532 23.8628 38.4532 25.1276C38.4532 26.3923 38.0243 27.435 37.1609 28.2984C36.2975 29.1619 35.2548 29.5908 33.99 29.5908Z" fill="#E66E06" stroke="#E66E06" stroke-width="1.37328"/>
</svg>
