<svg width="42" height="42" viewBox="0 0 42 42" fill="none" xmlns="http://www.w3.org/2000/svg">
<path d="M3.7508 18.4645L3.63812 19.2488H4.43046H6.30088C6.66509 19.2488 7.01439 19.3935 7.27193 19.651L7.75746 19.1655L7.27194 19.651C7.52948 19.9086 7.67416 20.2579 7.67416 20.6221V31.2163C7.67416 31.5805 7.52948 31.9298 7.27194 32.1874C7.0144 32.4449 6.6651 32.5896 6.30088 32.5896H4.24095C2.29925 32.5896 0.807736 31.134 0.807736 29.4509V20.9167C0.807736 9.93744 9.74115 1.00403 20.7204 1.00403C31.6996 1.00403 40.633 9.93744 40.633 20.9167V29.4509C40.633 31.134 39.1415 32.5896 37.1998 32.5896H36.5131V33.2762C36.5131 37.4412 33.1251 40.8293 28.9601 40.8293H17.2872V36.0228H24.1536V37.3961V38.0827H24.8402H28.9601C31.6114 38.0827 33.7666 35.9275 33.7666 33.2762V20.6221C33.7666 20.2579 33.9113 19.9086 34.1688 19.651C34.4263 19.3935 34.7756 19.2488 35.1399 19.2488H37.0103H37.8026L37.6899 18.4645C36.497 10.161 29.3533 3.7506 20.7204 3.7506C12.0874 3.7506 4.94376 10.161 3.7508 18.4645Z" fill="#E66E06" stroke="#E66E06" stroke-width="1.37328"/>
</svg>
