<svg width="58" height="58" viewBox="0 0 58 58" fill="none" xmlns="http://www.w3.org/2000/svg">
<path d="M31.7735 57.8374C43.4083 56.5341 52.7327 47.2334 54.0597 35.5986C55.8013 20.3858 43.977 7.43588 29.1551 7.27001V0.445547C29.1551 0.0664104 28.6812 -0.135006 28.3613 0.101955L14.3095 10.4216C14.0726 10.5993 14.0726 10.9429 14.3095 11.1206L28.3613 21.4402C28.6812 21.6772 29.1551 21.4639 29.1551 21.0966V14.284C39.5695 14.4499 47.9105 23.3122 47.1996 33.9044C46.5954 43.0155 39.1667 50.4086 30.0556 50.9892C20.3994 51.6053 12.1887 44.7098 10.7196 35.5868C10.4471 33.8925 8.96607 32.6603 7.25995 32.6603C5.13915 32.6603 3.48043 34.5442 3.81217 36.6413C5.87373 49.6385 17.8758 59.3895 31.7735 57.8374Z" fill="#5B5B5B"/>
</svg>
