<svg width="50" height="51" viewBox="0 0 50 51" fill="none" xmlns="http://www.w3.org/2000/svg">
<path d="M8.32884 32.9286H4.89563V27.4355C4.89563 23.2623 8.27548 19.8824 12.4487 19.8824H20.0018V29.4954V30.182H20.6884H27.9394H28.2694L28.4755 29.9243L35.6441 20.9637L35.7945 20.7756V20.5347V15.0759V14.3893H35.1079H29.6148V11.6427H35.1079C36.9946 11.6427 38.5411 13.1892 38.5411 15.0759V21.7358L29.5869 32.9286H20.6884H20.0018V33.6153C20.0018 36.6555 17.5489 39.1084 14.5086 39.1084C11.4684 39.1084 9.01548 36.6555 9.01548 33.6153V32.9286H8.32884ZM12.4487 32.9286H11.7621V33.6153C11.7621 35.1274 12.9964 36.3618 14.5086 36.3618C16.0208 36.3618 17.2552 35.1274 17.2552 33.6153V32.9286H16.5685H12.4487Z" fill="#E66E06" stroke="#E66E06" stroke-width="1.37328"/>
<path d="M10.3906 13.0156H20.6903V17.1355H10.3906V13.0156ZM39.2296 27.4351C35.8101 27.4351 33.0498 30.1954 33.0498 33.6149C33.0498 37.0344 35.8101 39.7947 39.2296 39.7947C42.6491 39.7947 45.4094 37.0344 45.4094 33.6149C45.4094 30.1954 42.6491 27.4351 39.2296 27.4351ZM39.2296 35.6748C38.0966 35.6748 37.1697 34.7479 37.1697 33.6149C37.1697 32.4819 38.0966 31.555 39.2296 31.555C40.3626 31.555 41.2895 32.4819 41.2895 33.6149C41.2895 34.7479 40.3626 35.6748 39.2296 35.6748Z" fill="#E66E06"/>
</svg>
