<svg width="50" height="58" viewBox="0 0 50 58" fill="none" xmlns="http://www.w3.org/2000/svg">
<path d="M49.346 14.9291C49.2766 13.4033 49.2766 11.9468 49.2766 10.4903C49.2766 9.31121 48.375 8.40957 47.1959 8.40957C38.5263 8.40957 31.9373 5.91271 26.4581 0.572197C25.6258 -0.190732 24.3774 -0.190732 23.5451 0.572197C18.0659 5.91271 11.4769 8.40957 2.80728 8.40957C1.62821 8.40957 0.726566 9.31121 0.726566 10.4903C0.726566 11.9468 0.726566 13.4033 0.657209 14.9291C0.37978 29.4942 -0.0363647 49.4691 24.308 57.8613L25.0016 58L25.6952 57.8613C49.9702 49.4691 49.6234 29.5635 49.346 14.9291ZM23.337 35.1121C22.9209 35.4589 22.4354 35.667 21.8805 35.667H21.8112C21.2563 35.667 20.7015 35.3895 20.3547 34.9734L13.9044 27.8296L17.0255 25.0553L22.0886 30.6732L33.3245 19.9922L36.1681 23.0439L23.337 35.1121Z" fill="#5B5B5B"/>
</svg>
